<?xml version="1.0" encoding="utf-8"?>
<svg width="50pt" height="50pt" version="1.1" viewBox="0 0 700 700" xmlns="http://www.w3.org/2000/svg">
  <path d="m385 490c-8.3984 0-16.625-3.0469-23.066-8.6445l-280-245c-9.3438-8.1562-13.648-20.684-11.34-32.863 2.3438-12.215 10.953-22.262 22.645-26.461l490-175c13.406-4.7969 28.453-0.91016 37.941 9.7656 9.4844 10.711 11.516 26.074 5.1094 38.852l-210 420c-4.8633 9.6953-13.895 16.625-24.535 18.691l-6.7539 0.66406zm-212.1-267.09 201.04 175.91 150.78-301.59zm37.102 267.09c-4.2344 0-8.5039-0.73438-12.637-2.3438-13.477-5.2148-22.363-18.199-22.363-32.656v-140c0-19.32 15.68-35 35-35s35 15.68 35 35v49.488l16.66-18.305c13.02-14.246 35.141-15.328 49.453-2.3438 14.316 13.02 15.328 35.141 2.3438 49.453l-77.559 85.262c-6.7891 7.4531-16.238 11.445-25.898 11.445z" style="fill: rgb(157, 83, 156);"/>
</svg>